<svg width="200" height="50" viewBox="0 0 200 50" fill="none" xmlns="http://www.w3.org/2000/svg">
  <!-- Shield with cross icon -->
  <g id="logo-icon">
    <!-- Shield background -->
    <path d="M25 5C25 5 17.5 7.5 10 7.5C10 7.5 10 18.75 10 25C10 35 17.5 42.5 25 45C32.5 42.5 40 35 40 25C40 18.75 40 7.5 40 7.5C32.5 7.5 25 5 25 5Z" fill="#2563EB" stroke="#1E40AF" stroke-width="1.5" stroke-linejoin="round"/>
    
    <!-- Cross symbol -->
    <rect x="23" y="15" width="4" height="14" rx="1" fill="white"/>
    <rect x="18" y="20" width="14" height="4" rx="1" fill="white"/>
    
    <!-- Checkmark -->
    <path d="M29 26L27 28L22 23" stroke="#10B981" stroke-width="2.5" stroke-linecap="round" stroke-linejoin="round"/>
  </g>
  
  <!-- Text "PharmaVerif" -->
  <g id="logo-text">
    <!-- "Pharma" in bold -->
    <text x="50" y="25" font-family="Arial, sans-serif" font-size="18" font-weight="700" fill="#1F2937">Pharma</text>
    <!-- "Verif" in bold with accent color -->
    <text x="50" y="40" font-family="Arial, sans-serif" font-size="18" font-weight="700" fill="#2563EB">Verif</text>
  </g>
  
  <!-- Tagline -->
  <text x="125" y="32" font-family="Arial, sans-serif" font-size="8" fill="#6B7280">Vérification intelligente</text>
</svg>